<?xml version="1.0" encoding="UTF-8" standalone="no"?><svg xmlns="http://www.w3.org/2000/svg" xmlns:xlink="http://www.w3.org/1999/xlink" contentScriptType="application/ecmascript" contentStyleType="text/css" height="636px" preserveAspectRatio="none" style="width:720px;height:636px;" version="1.1" viewBox="0 0 720 636" width="720px" zoomAndPan="magnify"><defs><filter height="300%" id="fkpqy814uvhbp" width="300%" x="-1" y="-1"><feGaussianBlur result="blurOut" stdDeviation="2.0"/><feColorMatrix in="blurOut" result="blurOut2" type="matrix" values="0 0 0 0 0 0 0 0 0 0 0 0 0 0 0 0 0 0 .4 0"/><feOffset dx="4.0" dy="4.0" in="blurOut2" result="blurOut3"/><feBlend in="SourceGraphic" in2="blurOut3" mode="normal"/></filter></defs><g><text fill="#000000" font-family="sans-serif" font-size="18" lengthAdjust="spacingAndGlyphs" textLength="82" x="314.75" y="27.4023">ToDo登録</text><rect fill="#FFFFFF" filter="url(#fkpqy814uvhbp)" height="103.8867" style="stroke: #000000; stroke-width: 2.0;" width="414" x="148.5" y="211.3086"/><rect fill="#FFFFFF" height="57.2656" style="stroke: none; stroke-width: 1.0;" width="414" x="148.5" y="257.9297"/><line style="stroke: #A80036; stroke-width: 1.0; stroke-dasharray: 5.0,5.0;" x1="26" x2="26" y1="121.6875" y2="549.0586"/><line style="stroke: #A80036; stroke-width: 1.0; stroke-dasharray: 5.0,5.0;" x1="180.5" x2="180.5" y1="121.6875" y2="549.0586"/><line style="stroke: #A80036; stroke-width: 1.0; stroke-dasharray: 5.0,5.0;" x1="532.5" x2="532.5" y1="121.6875" y2="549.0586"/><line style="stroke: #A80036; stroke-width: 1.0; stroke-dasharray: 5.0,5.0;" x1="685.5" x2="685.5" y1="121.6875" y2="549.0586"/><text fill="#000000" font-family="sans-serif" font-size="14" lengthAdjust="spacingAndGlyphs" textLength="31" x="8" y="118.7344">User</text><ellipse cx="26.5" cy="48.1992" fill="#FEFECE" filter="url(#fkpqy814uvhbp)" rx="8" ry="8" style="stroke: #A80036; stroke-width: 2.0;"/><path d="M26.5,56.1992 L26.5,83.1992 M13.5,64.1992 L39.5,64.1992 M26.5,83.1992 L13.5,98.1992 M26.5,83.1992 L39.5,98.1992 " fill="none" filter="url(#fkpqy814uvhbp)" style="stroke: #A80036; stroke-width: 2.0;"/><text fill="#000000" font-family="sans-serif" font-size="14" lengthAdjust="spacingAndGlyphs" textLength="31" x="8" y="561.5938">User</text><ellipse cx="26.5" cy="574.5469" fill="#FEFECE" filter="url(#fkpqy814uvhbp)" rx="8" ry="8" style="stroke: #A80036; stroke-width: 2.0;"/><path d="M26.5,582.5469 L26.5,609.5469 M13.5,590.5469 L39.5,590.5469 M26.5,609.5469 L13.5,624.5469 M26.5,609.5469 L39.5,624.5469 " fill="none" filter="url(#fkpqy814uvhbp)" style="stroke: #A80036; stroke-width: 2.0;"/><rect fill="#FEFECE" filter="url(#fkpqy814uvhbp)" height="30.4883" style="stroke: #A80036; stroke-width: 1.5;" width="40" x="158.5" y="86.1992"/><text fill="#000000" font-family="sans-serif" font-size="14" lengthAdjust="spacingAndGlyphs" textLength="26" x="165.5" y="106.7344">APP</text><rect fill="#FEFECE" filter="url(#fkpqy814uvhbp)" height="30.4883" style="stroke: #A80036; stroke-width: 1.5;" width="40" x="158.5" y="548.0586"/><text fill="#000000" font-family="sans-serif" font-size="14" lengthAdjust="spacingAndGlyphs" textLength="26" x="165.5" y="568.5938">APP</text><rect fill="#FEFECE" filter="url(#fkpqy814uvhbp)" height="30.4883" style="stroke: #A80036; stroke-width: 1.5;" width="36" x="512.5" y="86.1992"/><text fill="#000000" font-family="sans-serif" font-size="14" lengthAdjust="spacingAndGlyphs" textLength="22" x="519.5" y="106.7344">API</text><rect fill="#FEFECE" filter="url(#fkpqy814uvhbp)" height="30.4883" style="stroke: #A80036; stroke-width: 1.5;" width="36" x="512.5" y="548.0586"/><text fill="#000000" font-family="sans-serif" font-size="14" lengthAdjust="spacingAndGlyphs" textLength="22" x="519.5" y="568.5938">API</text><text fill="#000000" font-family="sans-serif" font-size="14" lengthAdjust="spacingAndGlyphs" textLength="18" x="673.5" y="118.7344">DB</text><path d="M667.5,69.1992 C667.5,59.1992 685.5,59.1992 685.5,59.1992 C685.5,59.1992 703.5,59.1992 703.5,69.1992 L703.5,95.1992 C703.5,105.1992 685.5,105.1992 685.5,105.1992 C685.5,105.1992 667.5,105.1992 667.5,95.1992 L667.5,69.1992 " fill="#FEFECE" filter="url(#fkpqy814uvhbp)" style="stroke: #000000; stroke-width: 1.5;"/><path d="M667.5,69.1992 C667.5,79.1992 685.5,79.1992 685.5,79.1992 C685.5,79.1992 703.5,79.1992 703.5,69.1992 " fill="none" style="stroke: #000000; stroke-width: 1.5;"/><text fill="#000000" font-family="sans-serif" font-size="14" lengthAdjust="spacingAndGlyphs" textLength="18" x="673.5" y="561.5938">DB</text><path d="M667.5,574.5469 C667.5,564.5469 685.5,564.5469 685.5,564.5469 C685.5,564.5469 703.5,564.5469 703.5,574.5469 L703.5,600.5469 C703.5,610.5469 685.5,610.5469 685.5,610.5469 C685.5,610.5469 667.5,610.5469 667.5,600.5469 L667.5,574.5469 " fill="#FEFECE" filter="url(#fkpqy814uvhbp)" style="stroke: #000000; stroke-width: 1.5;"/><path d="M667.5,574.5469 C667.5,584.5469 685.5,584.5469 685.5,584.5469 C685.5,584.5469 703.5,584.5469 703.5,574.5469 " fill="none" style="stroke: #000000; stroke-width: 1.5;"/><rect fill="#EEEEEE" filter="url(#fkpqy814uvhbp)" height="3" style="stroke: #EEEEEE; stroke-width: 1.0;" width="705.5" x="3" y="152.3428"/><line style="stroke: #000000; stroke-width: 1.0;" x1="3" x2="708.5" y1="152.3428" y2="152.3428"/><line style="stroke: #000000; stroke-width: 1.0;" x1="3" x2="708.5" y1="155.3428" y2="155.3428"/><rect fill="#EEEEEE" filter="url(#fkpqy814uvhbp)" height="23.3105" style="stroke: #000000; stroke-width: 2.0;" width="114" x="298.75" y="141.6875"/><text fill="#000000" font-family="sans-serif" font-size="13" font-weight="bold" lengthAdjust="spacingAndGlyphs" textLength="96" x="304.75" y="158.2559">Userからの入力</text><polygon fill="#A80036" points="168.5,192.3086,178.5,196.3086,168.5,200.3086,172.5,196.3086" style="stroke: #A80036; stroke-width: 1.0;"/><line style="stroke: #A80036; stroke-width: 1.0;" x1="26.5" x2="174.5" y1="196.3086" y2="196.3086"/><text fill="#000000" font-family="sans-serif" font-size="13" lengthAdjust="spacingAndGlyphs" textLength="130" x="33.5" y="191.5664">メールアドレスを入力</text><path d="M148.5,211.3086 L210.5,211.3086 L210.5,218.3086 L200.5,228.3086 L148.5,228.3086 L148.5,211.3086 " fill="#EEEEEE" style="stroke: #000000; stroke-width: 1.0;"/><rect fill="none" height="103.8867" style="stroke: #000000; stroke-width: 2.0;" width="414" x="148.5" y="211.3086"/><text fill="#000000" font-family="sans-serif" font-size="13" font-weight="bold" lengthAdjust="spacingAndGlyphs" textLength="17" x="163.5" y="224.877">alt</text><text fill="#000000" font-family="sans-serif" font-size="11" font-weight="bold" lengthAdjust="spacingAndGlyphs" textLength="95" x="225.5" y="223.9434">[successful case]</text><polygon fill="#A80036" points="520.5,245.9297,530.5,249.9297,520.5,253.9297,524.5,249.9297" style="stroke: #A80036; stroke-width: 1.0;"/><line style="stroke: #A80036; stroke-width: 1.0;" x1="180.5" x2="526.5" y1="249.9297" y2="249.9297"/><text fill="#000000" font-family="sans-serif" font-size="13" lengthAdjust="spacingAndGlyphs" textLength="99" x="187.5" y="245.1875">ToDo内容を送信</text><line style="stroke: #000000; stroke-width: 1.0; stroke-dasharray: 2.0,2.0;" x1="148.5" x2="562.5" y1="258.9297" y2="258.9297"/><text fill="#000000" font-family="sans-serif" font-size="11" font-weight="bold" lengthAdjust="spacingAndGlyphs" textLength="73" x="153.5" y="269.5645">[failure case]</text><line style="stroke: #A80036; stroke-width: 1.0;" x1="180.5" x2="222.5" y1="294.1953" y2="294.1953"/><line style="stroke: #A80036; stroke-width: 1.0;" x1="222.5" x2="222.5" y1="294.1953" y2="307.1953"/><line style="stroke: #A80036; stroke-width: 1.0;" x1="181.5" x2="222.5" y1="307.1953" y2="307.1953"/><polygon fill="#A80036" points="191.5,303.1953,181.5,307.1953,191.5,311.1953,187.5,307.1953" style="stroke: #A80036; stroke-width: 1.0;"/><text fill="#000000" font-family="sans-serif" font-size="13" lengthAdjust="spacingAndGlyphs" textLength="338" x="187.5" y="289.4531">エラーメッセージを表示（validation：文字数50字以内）</text><rect fill="#EEEEEE" filter="url(#fkpqy814uvhbp)" height="3" style="stroke: #EEEEEE; stroke-width: 1.0;" width="705.5" x="3" y="342.8506"/><line style="stroke: #000000; stroke-width: 1.0;" x1="3" x2="708.5" y1="342.8506" y2="342.8506"/><line style="stroke: #000000; stroke-width: 1.0;" x1="3" x2="708.5" y1="345.8506" y2="345.8506"/><rect fill="#EEEEEE" filter="url(#fkpqy814uvhbp)" height="23.3105" style="stroke: #000000; stroke-width: 2.0;" width="66" x="322.75" y="332.1953"/><text fill="#000000" font-family="sans-serif" font-size="13" font-weight="bold" lengthAdjust="spacingAndGlyphs" textLength="48" x="328.75" y="348.7637">API通信</text><polygon fill="#A80036" points="673.5,382.8164,683.5,386.8164,673.5,390.8164,677.5,386.8164" style="stroke: #A80036; stroke-width: 1.0;"/><line style="stroke: #A80036; stroke-width: 1.0;" x1="532.5" x2="679.5" y1="386.8164" y2="386.8164"/><text fill="#000000" font-family="sans-serif" font-size="13" lengthAdjust="spacingAndGlyphs" textLength="129" x="539.5" y="382.0742">DBへToDo内容を登録</text><polygon fill="#A80036" points="543.5,412.127,533.5,416.127,543.5,420.127,539.5,416.127" style="stroke: #A80036; stroke-width: 1.0;"/><line style="stroke: #A80036; stroke-width: 1.0;" x1="537.5" x2="684.5" y1="416.127" y2="416.127"/><text fill="#000000" font-family="sans-serif" font-size="13" lengthAdjust="spacingAndGlyphs" textLength="126" x="549.5" y="411.3848">ToDo内容のIDを返却</text><polygon fill="#A80036" points="191.5,441.4375,181.5,445.4375,191.5,449.4375,187.5,445.4375" style="stroke: #A80036; stroke-width: 1.0;"/><line style="stroke: #A80036; stroke-width: 1.0;" x1="185.5" x2="531.5" y1="445.4375" y2="445.4375"/><text fill="#000000" font-family="sans-serif" font-size="13" lengthAdjust="spacingAndGlyphs" textLength="126" x="197.5" y="440.6953">ToDo内容のIDを返却</text><rect fill="#EEEEEE" filter="url(#fkpqy814uvhbp)" height="3" style="stroke: #EEEEEE; stroke-width: 1.0;" width="705.5" x="3" y="474.0928"/><line style="stroke: #000000; stroke-width: 1.0;" x1="3" x2="708.5" y1="474.0928" y2="474.0928"/><line style="stroke: #000000; stroke-width: 1.0;" x1="3" x2="708.5" y1="477.0928" y2="477.0928"/><rect fill="#EEEEEE" filter="url(#fkpqy814uvhbp)" height="23.3105" style="stroke: #000000; stroke-width: 2.0;" width="188" x="261.75" y="463.4375"/><text fill="#000000" font-family="sans-serif" font-size="13" font-weight="bold" lengthAdjust="spacingAndGlyphs" textLength="170" x="267.75" y="480.0059">Userが入力したToDoを表示</text><line style="stroke: #A80036; stroke-width: 1.0;" x1="180.5" x2="222.5" y1="518.0586" y2="518.0586"/><line style="stroke: #A80036; stroke-width: 1.0;" x1="222.5" x2="222.5" y1="518.0586" y2="531.0586"/><line style="stroke: #A80036; stroke-width: 1.0;" x1="181.5" x2="222.5" y1="531.0586" y2="531.0586"/><polygon fill="#A80036" points="191.5,527.0586,181.5,531.0586,191.5,535.0586,187.5,531.0586" style="stroke: #A80036; stroke-width: 1.0;"/><text fill="#000000" font-family="sans-serif" font-size="13" lengthAdjust="spacingAndGlyphs" textLength="177" x="187.5" y="513.3164">入力したToDoをリストへ表示</text><!--MD5=[51e7c58f7a2ca4952ea8d05ed9232389]
@startuml

actor User
participant APP
participant API
database DB

title ToDo登録

== Userからの入力 ==
User -> APP: メールアドレスを入力

alt successful case
    APP -> API: ToDo内容を送信
else failure case
    APP -> APP: エラーメッセージを表示（validation：文字数50字以内）
end

== API通信 ==
API -> DB: DBへToDo内容を登録
DB -> API: ToDo内容のIDを返却
API -> APP: ToDo内容のIDを返却

== Userが入力したToDoを表示 ==
APP -> APP: 入力したToDoをリストへ表示

@enduml

PlantUML version 1.2020.10(Sun May 17 18:35:57 JST 2020)
(GPL source distribution)
Java Runtime: OpenJDK Runtime Environment
JVM: OpenJDK 64-Bit Server VM
Java Version: 12.0.2+10
Operating System: Mac OS X
Default Encoding: UTF-8
Language: ja
Country: CN
--></g></svg>